<mxfile host="app.diagrams.net" modified="2023-10-27T23:55:22.643Z" agent="Mozilla/5.0 (Windows NT 10.0; Win64; x64; rv:109.0) Gecko/20100101 Firefox/119.0" etag="OFY1JsS1pH0fqGDCwaIb" version="22.0.8" type="device">
  <diagram name="Page-1" id="qhfP6bKlPR8mw1JLy3Bd">
    <mxGraphModel dx="1434" dy="782" grid="1" gridSize="10" guides="1" tooltips="1" connect="1" arrows="1" fold="1" page="1" pageScale="1" pageWidth="850" pageHeight="1100" math="0" shadow="0">
      <root>
        <mxCell id="0" />
        <mxCell id="1" parent="0" />
        <mxCell id="Lub9cdXDQFeGrIOrBL36-2" value="" style="ellipse;html=1;shape=startState;fillColor=#000000;strokeColor=#ff0000;" parent="1" vertex="1">
          <mxGeometry x="350" y="10" width="30" height="30" as="geometry" />
        </mxCell>
        <mxCell id="Lub9cdXDQFeGrIOrBL36-3" value="" style="edgeStyle=orthogonalEdgeStyle;html=1;verticalAlign=bottom;endArrow=open;endSize=8;strokeColor=#ff0000;rounded=0;" parent="1" source="Lub9cdXDQFeGrIOrBL36-2" edge="1">
          <mxGeometry relative="1" as="geometry">
            <mxPoint x="365" y="100" as="targetPoint" />
          </mxGeometry>
        </mxCell>
        <mxCell id="Lub9cdXDQFeGrIOrBL36-6" style="edgeStyle=orthogonalEdgeStyle;rounded=0;orthogonalLoop=1;jettySize=auto;html=1;exitX=0.5;exitY=1;exitDx=0;exitDy=0;entryX=0.5;entryY=0;entryDx=0;entryDy=0;" parent="1" source="Lub9cdXDQFeGrIOrBL36-4" target="Lub9cdXDQFeGrIOrBL36-5" edge="1">
          <mxGeometry relative="1" as="geometry" />
        </mxCell>
        <mxCell id="Lub9cdXDQFeGrIOrBL36-4" value="&lt;b&gt;[HTTP REQUEST]&lt;/b&gt;" style="rounded=1;whiteSpace=wrap;html=1;" parent="1" vertex="1">
          <mxGeometry x="305" y="100" width="120" height="60" as="geometry" />
        </mxCell>
        <mxCell id="Lub9cdXDQFeGrIOrBL36-10" style="edgeStyle=orthogonalEdgeStyle;rounded=0;orthogonalLoop=1;jettySize=auto;html=1;exitX=1;exitY=1;exitDx=0;exitDy=0;entryX=0;entryY=0.5;entryDx=0;entryDy=0;" parent="1" source="Lub9cdXDQFeGrIOrBL36-5" target="Lub9cdXDQFeGrIOrBL36-8" edge="1">
          <mxGeometry relative="1" as="geometry" />
        </mxCell>
        <mxCell id="Lub9cdXDQFeGrIOrBL36-45" style="edgeStyle=orthogonalEdgeStyle;rounded=0;orthogonalLoop=1;jettySize=auto;html=1;exitX=0;exitY=0.5;exitDx=0;exitDy=0;entryX=1;entryY=0.5;entryDx=0;entryDy=0;" parent="1" source="Lub9cdXDQFeGrIOrBL36-5" target="Lub9cdXDQFeGrIOrBL36-44" edge="1">
          <mxGeometry relative="1" as="geometry" />
        </mxCell>
        <mxCell id="Lub9cdXDQFeGrIOrBL36-5" value="" style="rhombus;whiteSpace=wrap;html=1;fillColor=#fff2cc;strokeColor=#d6b656;" parent="1" vertex="1">
          <mxGeometry x="340" y="200" width="50" height="50" as="geometry" />
        </mxCell>
        <mxCell id="Lub9cdXDQFeGrIOrBL36-7" value="Is the download successful for each image?" style="text;html=1;strokeColor=none;fillColor=none;align=center;verticalAlign=middle;whiteSpace=wrap;rounded=0;fontStyle=1" parent="1" vertex="1">
          <mxGeometry x="520" y="640" width="235" height="30" as="geometry" />
        </mxCell>
        <mxCell id="Lub9cdXDQFeGrIOrBL36-13" style="edgeStyle=orthogonalEdgeStyle;rounded=0;orthogonalLoop=1;jettySize=auto;html=1;exitX=0.5;exitY=1;exitDx=0;exitDy=0;entryX=0.5;entryY=0;entryDx=0;entryDy=0;" parent="1" source="Lub9cdXDQFeGrIOrBL36-8" target="Lub9cdXDQFeGrIOrBL36-12" edge="1">
          <mxGeometry relative="1" as="geometry" />
        </mxCell>
        <mxCell id="Lub9cdXDQFeGrIOrBL36-8" value="Init Selenium Web Driver" style="rounded=1;whiteSpace=wrap;html=1;" parent="1" vertex="1">
          <mxGeometry x="450" y="240" width="120" height="60" as="geometry" />
        </mxCell>
        <mxCell id="Lub9cdXDQFeGrIOrBL36-11" value="&lt;b&gt;Yes&lt;/b&gt;" style="text;html=1;strokeColor=none;fillColor=none;align=center;verticalAlign=middle;whiteSpace=wrap;rounded=0;" parent="1" vertex="1">
          <mxGeometry x="365" y="240" width="60" height="30" as="geometry" />
        </mxCell>
        <mxCell id="Lub9cdXDQFeGrIOrBL36-30" style="edgeStyle=orthogonalEdgeStyle;rounded=0;orthogonalLoop=1;jettySize=auto;html=1;exitX=1;exitY=0.5;exitDx=0;exitDy=0;" parent="1" source="Lub9cdXDQFeGrIOrBL36-12" target="Lub9cdXDQFeGrIOrBL36-14" edge="1">
          <mxGeometry relative="1" as="geometry" />
        </mxCell>
        <mxCell id="Lub9cdXDQFeGrIOrBL36-12" value="Make a request to nhentai.com to get doujin slug" style="rounded=1;whiteSpace=wrap;html=1;" parent="1" vertex="1">
          <mxGeometry x="450" y="350" width="120" height="60" as="geometry" />
        </mxCell>
        <mxCell id="Lub9cdXDQFeGrIOrBL36-17" style="edgeStyle=orthogonalEdgeStyle;rounded=0;orthogonalLoop=1;jettySize=auto;html=1;exitX=0.5;exitY=1;exitDx=0;exitDy=0;entryX=0.5;entryY=0;entryDx=0;entryDy=0;" parent="1" source="Lub9cdXDQFeGrIOrBL36-14" target="Lub9cdXDQFeGrIOrBL36-16" edge="1">
          <mxGeometry relative="1" as="geometry" />
        </mxCell>
        <mxCell id="Lub9cdXDQFeGrIOrBL36-14" value="Extract the slug from the URL" style="rounded=1;whiteSpace=wrap;html=1;" parent="1" vertex="1">
          <mxGeometry x="605" y="350" width="120" height="60" as="geometry" />
        </mxCell>
        <mxCell id="Lub9cdXDQFeGrIOrBL36-20" style="edgeStyle=orthogonalEdgeStyle;rounded=0;orthogonalLoop=1;jettySize=auto;html=1;exitX=1;exitY=0.5;exitDx=0;exitDy=0;entryX=0;entryY=0.5;entryDx=0;entryDy=0;" parent="1" source="Lub9cdXDQFeGrIOrBL36-16" target="Lub9cdXDQFeGrIOrBL36-18" edge="1">
          <mxGeometry relative="1" as="geometry" />
        </mxCell>
        <mxCell id="Lub9cdXDQFeGrIOrBL36-16" value="Make a request to nhentai.com API for image URLs" style="rounded=1;whiteSpace=wrap;html=1;" parent="1" vertex="1">
          <mxGeometry x="450" y="450" width="120" height="60" as="geometry" />
        </mxCell>
        <mxCell id="Lub9cdXDQFeGrIOrBL36-23" style="edgeStyle=orthogonalEdgeStyle;rounded=0;orthogonalLoop=1;jettySize=auto;html=1;exitX=0.5;exitY=1;exitDx=0;exitDy=0;entryX=0.5;entryY=0;entryDx=0;entryDy=0;" parent="1" source="Lub9cdXDQFeGrIOrBL36-18" target="Lub9cdXDQFeGrIOrBL36-22" edge="1">
          <mxGeometry relative="1" as="geometry" />
        </mxCell>
        <mxCell id="Lub9cdXDQFeGrIOrBL36-18" value="Parse the API response to get image URLs" style="rounded=1;whiteSpace=wrap;html=1;" parent="1" vertex="1">
          <mxGeometry x="605" y="450" width="120" height="60" as="geometry" />
        </mxCell>
        <mxCell id="Lub9cdXDQFeGrIOrBL36-25" style="edgeStyle=orthogonalEdgeStyle;rounded=0;orthogonalLoop=1;jettySize=auto;html=1;exitX=1;exitY=0.5;exitDx=0;exitDy=0;entryX=0;entryY=0.5;entryDx=0;entryDy=0;" parent="1" source="Lub9cdXDQFeGrIOrBL36-22" target="Lub9cdXDQFeGrIOrBL36-24" edge="1">
          <mxGeometry relative="1" as="geometry" />
        </mxCell>
        <mxCell id="Lub9cdXDQFeGrIOrBL36-22" value="Create a local directory for the doujin" style="rounded=1;whiteSpace=wrap;html=1;" parent="1" vertex="1">
          <mxGeometry x="450" y="550" width="120" height="60" as="geometry" />
        </mxCell>
        <mxCell id="Lub9cdXDQFeGrIOrBL36-28" style="edgeStyle=orthogonalEdgeStyle;rounded=0;orthogonalLoop=1;jettySize=auto;html=1;exitX=0.5;exitY=1;exitDx=0;exitDy=0;entryX=0.5;entryY=0;entryDx=0;entryDy=0;" parent="1" source="Lub9cdXDQFeGrIOrBL36-24" target="Lub9cdXDQFeGrIOrBL36-26" edge="1">
          <mxGeometry relative="1" as="geometry" />
        </mxCell>
        <mxCell id="Lub9cdXDQFeGrIOrBL36-24" value="Download each image using the requests library &lt;b&gt;[NOT selenium driver!]&lt;/b&gt;" style="rounded=1;whiteSpace=wrap;html=1;" parent="1" vertex="1">
          <mxGeometry x="605" y="550" width="120" height="60" as="geometry" />
        </mxCell>
        <mxCell id="Lub9cdXDQFeGrIOrBL36-32" style="edgeStyle=orthogonalEdgeStyle;rounded=0;orthogonalLoop=1;jettySize=auto;html=1;exitX=1;exitY=1;exitDx=0;exitDy=0;entryX=0;entryY=0.5;entryDx=0;entryDy=0;" parent="1" source="Lub9cdXDQFeGrIOrBL36-26" target="Lub9cdXDQFeGrIOrBL36-31" edge="1">
          <mxGeometry relative="1" as="geometry" />
        </mxCell>
        <mxCell id="Lub9cdXDQFeGrIOrBL36-40" style="edgeStyle=orthogonalEdgeStyle;rounded=0;orthogonalLoop=1;jettySize=auto;html=1;exitX=0;exitY=1;exitDx=0;exitDy=0;entryX=1;entryY=0.5;entryDx=0;entryDy=0;" parent="1" source="Lub9cdXDQFeGrIOrBL36-26" target="Lub9cdXDQFeGrIOrBL36-38" edge="1">
          <mxGeometry relative="1" as="geometry" />
        </mxCell>
        <mxCell id="Lub9cdXDQFeGrIOrBL36-26" value="" style="rhombus;whiteSpace=wrap;html=1;fillColor=#fff2cc;strokeColor=#d6b656;" parent="1" vertex="1">
          <mxGeometry x="485" y="650" width="50" height="50" as="geometry" />
        </mxCell>
        <mxCell id="Lub9cdXDQFeGrIOrBL36-29" value="Is doujin number provided AND valid?" style="text;html=1;strokeColor=none;fillColor=none;align=center;verticalAlign=middle;whiteSpace=wrap;rounded=0;fontStyle=1" parent="1" vertex="1">
          <mxGeometry x="380" y="190" width="235" height="30" as="geometry" />
        </mxCell>
        <mxCell id="Lub9cdXDQFeGrIOrBL36-36" style="edgeStyle=orthogonalEdgeStyle;rounded=0;orthogonalLoop=1;jettySize=auto;html=1;exitX=0.5;exitY=1;exitDx=0;exitDy=0;entryX=0.5;entryY=0;entryDx=0;entryDy=0;" parent="1" source="Lub9cdXDQFeGrIOrBL36-31" target="Lub9cdXDQFeGrIOrBL36-35" edge="1">
          <mxGeometry relative="1" as="geometry" />
        </mxCell>
        <mxCell id="Lub9cdXDQFeGrIOrBL36-31" value="Display success message" style="rounded=1;whiteSpace=wrap;html=1;" parent="1" vertex="1">
          <mxGeometry x="590" y="690" width="120" height="60" as="geometry" />
        </mxCell>
        <mxCell id="Lub9cdXDQFeGrIOrBL36-33" value="&lt;b&gt;Yes&lt;/b&gt;" style="text;html=1;strokeColor=none;fillColor=none;align=center;verticalAlign=middle;whiteSpace=wrap;rounded=0;" parent="1" vertex="1">
          <mxGeometry x="510" y="690" width="60" height="30" as="geometry" />
        </mxCell>
        <mxCell id="Lub9cdXDQFeGrIOrBL36-35" value="" style="ellipse;html=1;shape=endState;fillColor=#000000;strokeColor=#ff0000;" parent="1" vertex="1">
          <mxGeometry x="635" y="790" width="30" height="30" as="geometry" />
        </mxCell>
        <mxCell id="Lub9cdXDQFeGrIOrBL36-37" value="&lt;b&gt;No&lt;/b&gt;" style="text;html=1;strokeColor=none;fillColor=none;align=center;verticalAlign=middle;whiteSpace=wrap;rounded=0;" parent="1" vertex="1">
          <mxGeometry x="450" y="690" width="60" height="30" as="geometry" />
        </mxCell>
        <mxCell id="Lub9cdXDQFeGrIOrBL36-42" style="edgeStyle=orthogonalEdgeStyle;rounded=0;orthogonalLoop=1;jettySize=auto;html=1;exitX=0.5;exitY=1;exitDx=0;exitDy=0;entryX=0.5;entryY=0;entryDx=0;entryDy=0;" parent="1" source="Lub9cdXDQFeGrIOrBL36-38" target="Lub9cdXDQFeGrIOrBL36-41" edge="1">
          <mxGeometry relative="1" as="geometry" />
        </mxCell>
        <mxCell id="Lub9cdXDQFeGrIOrBL36-38" value="Display error message" style="rounded=1;whiteSpace=wrap;html=1;" parent="1" vertex="1">
          <mxGeometry x="320" y="690" width="120" height="60" as="geometry" />
        </mxCell>
        <mxCell id="Lub9cdXDQFeGrIOrBL36-41" value="" style="ellipse;html=1;shape=endState;fillColor=#000000;strokeColor=#ff0000;" parent="1" vertex="1">
          <mxGeometry x="365" y="790" width="30" height="30" as="geometry" />
        </mxCell>
        <mxCell id="Lub9cdXDQFeGrIOrBL36-43" value="&lt;b&gt;No&lt;/b&gt;" style="text;html=1;strokeColor=none;fillColor=none;align=center;verticalAlign=middle;whiteSpace=wrap;rounded=0;" parent="1" vertex="1">
          <mxGeometry x="310" y="240" width="60" height="30" as="geometry" />
        </mxCell>
        <mxCell id="Lub9cdXDQFeGrIOrBL36-44" value="" style="ellipse;html=1;shape=endState;fillColor=#000000;strokeColor=#ff0000;" parent="1" vertex="1">
          <mxGeometry x="240" y="210" width="30" height="30" as="geometry" />
        </mxCell>
      </root>
    </mxGraphModel>
  </diagram>
</mxfile>
